<?xml version="1.0" encoding="utf-8"?>
<!-- Generator: Adobe Illustrator 16.0.0, SVG Export Plug-In . SVG Version: 6.00 Build 0)  -->
<!DOCTYPE svg PUBLIC "-//W3C//DTD SVG 1.1//EN" "http://www.w3.org/Graphics/SVG/1.1/DTD/svg11.dtd">
<svg version="1.1" id="图层_1" xmlns="http://www.w3.org/2000/svg" xmlns:xlink="http://www.w3.org/1999/xlink" x="0px" y="0px"
	 width="345.762px" height="345.756px" viewBox="0 0 345.762 345.756" enable-background="new 0 0 345.762 345.756"
	 xml:space="preserve">
<path fill-rule="evenodd" clip-rule="evenodd" fill="#4A494A" d="M0.005,172.656c0-34.491-0.013-68.982,0.003-103.474
	C0.026,29.72,29.707,0.037,69.264,0.02c69.314-0.029,138.629-0.034,207.943,0.037c33.008,0.034,59.725,21.378,66.936,53.457
	c1.013,4.506,1.525,9.222,1.532,13.842c0.101,70.149,0.091,140.298,0.08,210.447c-0.005,37.609-30.428,67.963-68.016,67.954
	c-69.815-0.016-139.631-0.017-209.447-0.011c-38.126,0.002-68.24-30.024-68.256-68.116c-0.015-34.991-0.003-69.982-0.003-104.974
	C0.023,172.656,0.014,172.656,0.005,172.656z"/>
<path fill-rule="evenodd" clip-rule="evenodd" fill="#FFFFFF" d="M320.176,172.914c0.038,0,0.075,0,0.113,0
	c0-33.997,0.08-67.993-0.082-101.989c-0.025-5.439-0.405-11.08-1.876-16.271c-5.165-18.23-21.711-29.325-43.317-29.344
	c-68.826-0.061-137.652-0.167-206.475,0.203c-7.054,0.038-14.755,1.871-21.004,5.1c-15.421,7.97-22.407,21.623-22.396,38.934
	c0.034,57.66,0.017,115.321,0.061,172.981c0.009,12.829-0.461,25.702,0.425,38.476c1.62,23.357,19.428,39.538,42.74,39.547
	c68.825,0.027,137.649-0.017,206.475-0.107c4.307-0.006,8.732-0.144,12.898-1.108c19.457-4.508,32.311-20.879,32.398-41.433
	C320.284,242.907,320.176,207.91,320.176,172.914z"/>
<path fill-rule="evenodd" clip-rule="evenodd" fill="#CE4542" d="M172.698,207.645c-9.321,0-18.643,0.056-27.963-0.014
	c-12.637-0.095-22.46-9.878-22.515-22.514c-0.081-18.642-0.085-37.284-0.029-55.926c0.038-12.654,10.093-22.898,22.75-22.993
	c18.475-0.139,36.952-0.152,55.426-0.018c12.961,0.094,23.099,10.235,23.2,23.21c0.144,18.475,0.15,36.952,0.007,55.426
	c-0.099,12.746-10.247,22.753-22.914,22.864c-9.32,0.082-18.642,0.016-27.963,0.016C172.698,207.68,172.698,207.663,172.698,207.645
	z"/>
<path fill-rule="evenodd" clip-rule="evenodd" fill="#4A494A" d="M102.561,246.775c-3.893,0-7.433,0-11.212,0
	c0-3.835,0-7.372,0-11.243c3.781,0,7.316,0,11.212,0C102.561,239.145,102.561,242.684,102.561,246.775z"/>
<path fill-rule="evenodd" clip-rule="evenodd" fill="#4A494A" d="M142.181,235.444c3.657,0,7.197,0,11.089,0
	c0,3.682,0,7.22,0,11.172c-3.584,0-7.118,0-11.089,0C142.181,243.042,142.181,239.384,142.181,235.444z"/>
<path fill-rule="evenodd" clip-rule="evenodd" fill="#4A494A" d="M167.19,235.274c3.933,0,7.388,0,11.323,0
	c0,3.676,0,7.354,0,11.412c-3.664,0-7.354,0-11.323,0C167.19,242.925,167.19,239.346,167.19,235.274z"/>
<path fill-rule="evenodd" clip-rule="evenodd" fill="#4A494A" d="M217.371,246.647c0-3.876,0-7.293,0-11.069
	c3.76,0,7.309,0,11.223,0c0,3.619,0,7.16,0,11.069C224.938,246.647,221.389,246.647,217.371,246.647z"/>
<path fill-rule="evenodd" clip-rule="evenodd" fill="#4A494A" d="M117.031,235.385c3.708,0,7.148,0,11.009,0
	c0,3.684,0,7.382,0,11.332c-3.703,0-7.135,0-11.009,0C117.031,243.077,117.031,239.535,117.031,235.385z"/>
<path fill-rule="evenodd" clip-rule="evenodd" fill="#4A494A" d="M77.082,246.775c-3.893,0-7.433,0-11.212,0
	c0-3.835,0-7.372,0-11.243c3.781,0,7.316,0,11.212,0C77.082,239.145,77.082,242.684,77.082,246.775z"/>
<path fill-rule="evenodd" clip-rule="evenodd" fill="#4A494A" d="M192.5,246.629c0-3.854,0-7.271,0-11.06c3.76,0,7.294,0,11.206,0
	c0,3.592,0,7.139,0,11.06C200.022,246.629,196.469,246.629,192.5,246.629z"/>
<path fill-rule="evenodd" clip-rule="evenodd" fill="#4A494A" d="M253.785,246.616c-3.686,0-7.066,0-10.816,0
	c0-3.737,0-7.253,0-11.067c3.68,0,7.062,0,10.816,0C253.785,239.287,253.785,242.803,253.785,246.616z"/>
<path fill-rule="evenodd" clip-rule="evenodd" fill="#4A494A" d="M279.385,246.616c-3.687,0-7.068,0-10.816,0
	c0-3.737,0-7.253,0-11.067c3.679,0,7.061,0,10.816,0C279.385,239.287,279.385,242.803,279.385,246.616z"/>
</svg>
